<svg width="256" height="321" viewBox="0 0 256 321" fill="none" xmlns="http://www.w3.org/2000/svg">
<mask id="mask0_100_1043" style="mask-type:alpha" maskUnits="userSpaceOnUse" x="0" y="0" width="256" height="321">
<rect width="256" height="321" fill="#F8FCF5"/>
</mask>
<g mask="url(#mask0_100_1043)">
<path d="M174.794 241.665C174.794 241.665 287.374 342.782 260.133 408.162C232.891 473.542 164.242 483.349 164.242 483.349L153.346 510.383L129.349 450.659L174.794 387.458C174.794 387.458 130.087 371.113 125.371 334.065C120.656 297.016 121.394 215.506 121.394 215.506" fill="#0087B9"/>
<path d="M125.371 334.065C128.704 360.249 152.011 376.09 165.394 383.13C171.204 371.048 174.794 354.405 174.794 336.028C174.794 299.116 160.311 269.192 142.445 269.192C134.76 269.192 127.702 274.733 122.152 283.982C122.731 302.522 123.714 321.041 125.371 334.065Z" fill="#01698F"/>
<path d="M155.408 217.13C155.408 217.13 170.074 456.495 128.653 569.825L137.305 582.537H63.633C63.633 582.537 55.5845 278.079 55.5845 212.365L155.408 217.13Z" fill="#0087B9"/>
<path d="M131.98 31.9307V63.0385L93.4438 72.5103V20.0143L131.98 10.5425V31.9307Z" fill="#EDEEEF"/>
<path d="M110.211 42.6936C110.78 42.6936 111.241 42.2322 111.241 41.6632C111.241 41.0941 110.78 40.6328 110.211 40.6328C109.642 40.6328 109.181 41.0941 109.181 41.6632C109.181 42.2322 109.642 42.6936 110.211 42.6936Z" fill="black"/>
<path d="M126.037 42.6936C126.606 42.6936 127.068 42.2322 127.068 41.6632C127.068 41.0941 126.606 40.6328 126.037 40.6328C125.468 40.6328 125.007 41.0941 125.007 41.6632C125.007 42.2322 125.468 42.6936 126.037 42.6936Z" fill="black"/>
<path d="M121.395 47.81V31.9307H129.349" stroke="black" stroke-width="1.5" stroke-linecap="round" stroke-linejoin="round"/>
<path d="M108.27 31.9306H116.225" stroke="black" stroke-width="1.5" stroke-linecap="round" stroke-linejoin="round"/>
<path d="M95.982 40.0666V45.5808C94.5536 45.5808 93.1837 45.0133 92.1736 44.0033C91.1636 42.9933 90.5962 41.6234 90.5962 40.195C90.5962 40.0297 90.6035 39.8663 90.6182 39.7048C90.92 36.3604 95.982 36.7086 95.982 40.0666Z" fill="#EDEEEF"/>
<path d="M95.982 45.5811C93.0075 45.5811 90.5962 43.1698 90.5962 40.1953" stroke="black" stroke-width="1.5" stroke-linecap="round" stroke-linejoin="round"/>
<path d="M117.915 51.724C114.904 51.724 112.464 49.2835 112.464 46.2729" stroke="#FC6250" stroke-width="1.5" stroke-linecap="round" stroke-linejoin="round"/>
<path d="M131.98 63.0386L93.4438 72.5101" stroke="black" stroke-width="1.5" stroke-linecap="round" stroke-linejoin="round"/>
<path d="M121.394 47.8223L117.915 48.6774" stroke="black" stroke-width="1.5" stroke-linecap="round" stroke-linejoin="round"/>
<path d="M97.1396 36.8404C97.1396 36.8404 103.194 31.2708 104.526 24.8535C104.526 24.8535 114.575 27.3962 120.145 26.3065V22.9163C120.145 22.9163 126.925 25.58 133.706 24.3692V20.7368" stroke="black" stroke-width="1.5" stroke-linecap="round" stroke-linejoin="round"/>
<path d="M133.706 17.7097H137.944C137.944 17.7097 129.71 -1.17874 97.9873 7.17576L100.288 2.81689C100.288 2.81689 90.8436 4.39093 90.4804 12.7454C90.4804 12.7454 88.6642 11.6557 85.5161 14.6827L88.1799 16.2567C88.1799 16.2567 81.9984 38.0511 93.4437 49.9169" stroke="black" stroke-width="1.5" stroke-linecap="round" stroke-linejoin="round"/>
<path d="M55.5845 128.215V212.365L174.794 241.665V147.945C174.794 114.713 152.107 85.7751 119.836 77.8434H119.836C104.36 74.0396 87.9942 77.5611 75.4523 87.3937C62.9103 97.2263 55.5845 112.278 55.5845 128.215V128.215Z" fill="#EDEEEF"/>
<path d="M155.408 217.13C155.408 217.13 170.074 456.494 128.653 569.825" stroke="black" stroke-width="1.5" stroke-linecap="round" stroke-linejoin="round"/>
<path d="M77.811 85.6499C77.811 85.6499 10.81 135.52 4.51386 200.419C-1.78229 265.318 120.305 290.987 143.291 180.562C143.291 180.562 155.137 173.297 151.262 162.158C151.262 162.158 160.721 155.377 157.929 152.956C155.137 150.534 61.1792 194.123 61.1792 194.123L95.9819 156.346" stroke="black" stroke-width="1.5" stroke-linecap="round" stroke-linejoin="round"/>
<path d="M161.036 105.557C161.036 105.557 193.276 135.662 201.509 171.018C201.509 171.018 207.444 112.885 214.708 105.557C221.973 98.2279 225.363 105.557 225.363 105.557C225.363 105.557 250.548 94.2629 250.548 102.299C250.548 110.336 234.081 119.054 234.081 119.054C234.081 119.054 267.099 276.941 174.794 235.774" stroke="black" stroke-width="1.5" stroke-linecap="round" stroke-linejoin="round"/>
</g>
<circle cx="230.5" cy="82.5" r="16.5" fill="#0087B9"/>
</svg>
