<svg width="117" height="25" viewBox="0 0 117 25" fill="none" xmlns="http://www.w3.org/2000/svg">
<g clip-path="url(#clip0_76_781)">
<path d="M0 23.9737L2.06154 23.4581V1.5403L0 1.02932V0.513672H4.46706C6.52626 0.513672 7.55664 1.54108 7.5582 3.5959V15.5826L13.9097 8.90482L11.3357 7.87585V7.36487H17.862V7.87585L15.1125 8.90482L11.1626 13.016L17.862 23.4581L19.578 23.9737V24.487H15.1125C14.1671 24.5296 13.2319 24.2779 12.4363 23.7668C11.6441 23.1738 10.9781 22.4295 10.477 21.5775L7.55898 16.9522V23.4573L9.61818 23.9729V24.4863H0V23.9737Z" fill="#0F0F0F"/>
<path d="M22.2572 23.6994C21.7366 23.317 21.3153 22.8161 21.0284 22.2384C20.7414 21.6607 20.5971 21.023 20.6075 20.3784C20.6124 19.468 20.8112 18.5691 21.1909 17.7411C21.3456 17.3393 21.5531 16.9599 21.8079 16.6126C22.747 16.3839 23.767 16.1788 24.8678 15.9974C27.0374 15.6188 29.2271 15.3661 31.4261 15.2406V14.2163C31.4261 11.6788 31.1169 9.93195 30.4986 8.97583C30.1954 8.50373 29.7709 8.12118 29.2693 7.86789C28.7677 7.6146 28.2073 7.49981 27.6462 7.53544C27.228 7.52683 26.8111 7.58512 26.4114 7.7081L25.931 7.87843V13.0162L25.4848 13.1158C25.1767 13.1595 24.8662 13.1831 24.555 13.1866C24.2113 13.2085 23.8668 13.1571 23.5446 13.0359C23.2223 12.9147 22.9297 12.7263 22.6861 12.4835C22.4426 12.2407 22.2537 11.9489 22.1322 11.6275C22.0106 11.3062 21.9591 10.9627 21.981 10.62C21.9966 10.076 22.1514 9.54497 22.4307 9.07739C22.71 8.60981 23.1046 8.22119 23.5769 7.94843C25.0198 7.12327 26.6753 6.74225 28.3349 6.85335C29.9272 6.81286 31.5078 7.13498 32.9564 7.79521C34.1731 8.35622 35.1989 9.25936 35.9079 10.3937C36.5962 11.5487 36.9473 12.8723 36.9219 14.2155V23.4607L38.9835 23.974V24.4873H35.8908C35.2978 24.5221 34.7043 24.4266 34.1524 24.2075C33.6004 23.9885 33.1035 23.6512 32.6967 23.2195C32.3565 22.8427 32.0988 22.3993 31.9401 21.9176C31.6287 22.4767 31.2485 22.9948 30.8083 23.4599C30.3062 23.9647 29.7059 24.3618 29.0441 24.6266C28.3824 24.8914 27.6733 25.0184 26.9606 24.9998C25.29 25.1081 23.6319 24.6492 22.2564 23.6979M30.6336 22.434C30.9381 22.0015 31.2026 21.5423 31.4237 21.0621V16.0946C30.4142 16.0924 29.4054 16.1501 28.4028 16.2672C27.693 16.3598 27.2094 16.4158 26.9582 16.4376C26.8157 16.7704 26.7015 17.1146 26.6166 17.4665C26.3914 18.3037 26.2757 19.1664 26.2726 20.0331C26.2058 21.0146 26.4074 21.9957 26.856 22.8719C26.9963 23.1438 27.2073 23.3731 27.4669 23.5357C27.7266 23.6984 28.0253 23.7885 28.3318 23.7966C28.7973 23.77 29.2496 23.6319 29.6501 23.3938C30.0507 23.1558 30.3878 22.825 30.6328 22.4294" fill="#0F0F0F"/>
<path d="M40.8703 23.9737L42.9295 23.4581V8.90481H40.5264V8.04929H42.9295V6.33824C42.9135 5.19405 43.2168 4.06795 43.8055 3.08569C44.4087 2.11036 45.278 1.32642 46.3116 0.825546C47.5058 0.25211 48.8194 -0.0306957 50.1445 0.000353426C51.1936 -0.0246706 52.2373 0.156354 53.2162 0.533112C53.9793 0.814799 54.6508 1.29885 55.1584 1.93306C55.5711 2.45714 55.7989 3.10228 55.8066 3.76855C55.8236 4.111 55.7701 4.4533 55.6494 4.77433C55.5287 5.09537 55.3432 5.38833 55.1046 5.63515C54.8569 5.87295 54.5631 6.05772 54.2411 6.17809C53.9192 6.29847 53.576 6.35191 53.2326 6.33513C52.91 6.33544 52.5878 6.31257 52.2685 6.26669L51.8559 6.1648V0.855879L51.5439 0.787437C51.4596 0.766437 51.3606 0.742327 51.242 0.72055C51.1063 0.695135 50.9683 0.683668 50.8302 0.686329C50.4451 0.688517 50.0694 0.805214 49.7512 1.02149C49.433 1.23777 49.1868 1.54379 49.044 1.9004C48.6316 2.71289 48.4249 4.19061 48.4239 6.33357V8.04462H53.9213V8.90015H48.4246V23.4581L50.4862 23.9737V24.487H40.8703V23.9737Z" fill="#0F0F0F"/>
<path d="M55.9805 23.9737L58.042 23.4581V1.5403L55.9805 1.02932V0.513672H60.4475C62.5067 0.513672 63.5371 1.54108 63.5387 3.5959V15.5826L69.8902 8.90482L67.3162 7.87585V7.36487H73.8432V7.87585L71.093 8.90482L67.143 13.016L73.8409 23.4581L75.5569 23.9737V24.487H71.093C70.1476 24.5296 69.2123 24.2779 68.4168 23.7668C67.6246 23.1738 66.9586 22.4295 66.4574 21.5775L63.5394 16.953V23.4581L65.5986 23.9737V24.487H55.9805V23.9737Z" fill="#0F0F0F"/>
<path d="M78.2401 23.6995C77.7195 23.3171 77.2982 22.8162 77.0113 22.2385C76.7243 21.6608 76.58 21.0231 76.5904 20.3785C76.5953 19.4681 76.7941 18.5692 77.1738 17.7412C77.3285 17.3395 77.536 16.96 77.7908 16.6127C78.7299 16.384 79.7499 16.1789 80.8507 15.9975C83.0203 15.6189 85.21 15.3662 87.409 15.2407V14.2164C87.409 11.6789 87.0998 9.93205 86.4815 8.97594C86.1783 8.50384 85.7538 8.12128 85.2523 7.86799C84.7507 7.6147 84.1902 7.49991 83.6291 7.53555C83.2109 7.52693 82.794 7.58522 82.3943 7.70821L81.9139 7.87853V13.0164L81.4677 13.1159C81.1597 13.1596 80.8491 13.1832 80.5379 13.1867C80.1942 13.2086 79.8498 13.1572 79.5275 13.036C79.2052 12.9148 78.9126 12.7265 78.669 12.4836C78.4255 12.2408 78.2366 11.949 78.1151 11.6276C77.9935 11.3063 77.942 10.9628 77.9639 10.6201C77.9794 10.0757 78.1343 9.54424 78.414 9.07635C78.6936 8.60846 79.0886 8.21968 79.5614 7.94698C81.0043 7.12177 82.6598 6.74075 84.3194 6.8519C85.9117 6.81141 87.4922 7.13353 88.9409 7.79376C90.1572 8.35544 91.1825 9.25911 91.8908 10.3938C92.5791 11.5488 92.9302 12.8724 92.9048 14.2156V23.4608L94.9664 23.9741V24.4874H91.8737C91.2807 24.5222 90.6872 24.4267 90.1353 24.2076C89.5833 23.9886 89.0864 23.6513 88.6796 23.2197C88.3394 22.8428 88.0818 22.3994 87.923 21.9177C87.6116 22.4768 87.2314 22.9949 86.7912 23.46C86.2891 23.9648 85.6888 24.3619 85.027 24.6267C84.3653 24.8915 83.6563 25.0186 82.9435 24.9999C81.2729 25.1082 79.6148 24.6493 78.2393 23.698M86.618 22.4326C86.9226 22.0001 87.187 21.5409 87.4082 21.0606V16.0947C86.3987 16.0925 85.3899 16.1502 84.3872 16.2673C83.6774 16.3599 83.1938 16.4159 82.9427 16.4377C82.8002 16.7706 82.6859 17.1147 82.601 17.4666C82.3758 18.3038 82.2602 19.1665 82.2571 20.0332C82.1902 21.0147 82.3919 21.9959 82.8405 22.872C82.9804 23.1452 83.1916 23.3757 83.4519 23.5393C83.7122 23.7029 84.0118 23.7934 84.3194 23.8014C84.7849 23.7748 85.2372 23.6366 85.6377 23.3986C86.0383 23.1606 86.3754 22.8297 86.6204 22.4341" fill="#0F0F0F"/>
<path d="M97.022 23.9737L99.0835 23.4581V1.5403L97.022 1.02932V0.513672H101.489C103.548 0.513672 104.579 1.54108 104.58 3.5959V23.4581L106.639 23.9737V24.487H97.022V23.9737Z" fill="#0F0F0F"/>
<path d="M113.1 24.9435C115.254 24.9435 117 23.2025 117 21.0548C117 18.9071 115.254 17.166 113.1 17.166C110.946 17.166 109.2 18.9071 109.2 21.0548C109.2 23.2025 110.946 24.9435 113.1 24.9435Z" fill="#0087B9"/>
</g>
<defs>
<clipPath id="clip0_76_781">
<rect width="117" height="25" fill="white"/>
</clipPath>
</defs>
</svg>
