<svg width="610" height="517" viewBox="0 0 610 517" fill="none" xmlns="http://www.w3.org/2000/svg">
<path fill-rule="evenodd" clip-rule="evenodd" d="M343.336 15C486.845 15 556 171.012 556 314.366C556 421.513 450.599 488 343.336 488C198.943 488 17 458.604 17 314.366C17 141.524 170.308 15 343.336 15Z" fill="#F7FBFD"/>
<path d="M445.957 435.956C425.926 297.742 308.639 237.784 308.639 237.784L259.783 264.749C258.063 264.749 268.94 314.261 268.94 314.261L341.312 348.512L408.328 459.239L459.311 440.415L445.957 435.956Z" fill="#E2E2E2"/>
<path d="M345.385 262.883C317.657 248.501 284.66 252.425 260.571 272.97C262.962 287.044 268.941 314.261 268.941 314.261L341.312 348.511L370.243 396.312C394.128 367.524 397.042 325.225 377.361 293.01C367.402 282.15 356.715 272.081 345.385 262.883Z" fill="black"/>
<path d="M382.875 318.342C380.523 247.658 301.624 236.343 301.624 236.343L210.314 212.366C210.314 212.366 195.255 318.937 310.439 320.72L255.969 435.956L306.032 459.239L301.624 443.09C301.624 443.09 384.28 360.552 382.875 318.342Z" fill="#EDEDED"/>
<path d="M210.314 212.366C210.314 212.366 195.255 318.937 310.439 320.721L255.969 435.956" stroke="black" stroke-width="1.5" stroke-linecap="round" stroke-linejoin="round"/>
<path d="M210.314 143.503V212.366L301.624 236.343V159.649C301.624 132.454 284.246 108.773 259.528 102.282H259.528C247.674 99.1696 235.138 102.051 225.532 110.098C215.925 118.144 210.314 130.462 210.314 143.503V143.503Z" fill="#FFC024"/>
<path d="M237.242 64.7107V75.6982C237.242 84.1942 242.671 91.5925 250.393 93.6203L266.759 97.9178V54.9588L253.151 51.3855C249.319 50.3792 245.267 51.3108 242.162 53.9119C239.056 56.513 237.242 60.4948 237.242 64.7107V64.7107Z" fill="#EDEEEF"/>
<path d="M237.242 75.6982C237.242 84.1942 242.671 91.5925 250.393 93.6203L266.759 97.9178" stroke="black" stroke-width="1.5" stroke-linecap="round" stroke-linejoin="round"/>
<path d="M253.916 73.5179C254.352 73.5179 254.705 73.1404 254.705 72.6747C254.705 72.209 254.352 71.8315 253.916 71.8315C253.48 71.8315 253.127 72.209 253.127 72.6747C253.127 73.1404 253.48 73.5179 253.916 73.5179Z" fill="black"/>
<path d="M241.794 73.5179C242.23 73.5179 242.583 73.1404 242.583 72.6747C242.583 72.209 242.23 71.8315 241.794 71.8315C241.358 71.8315 241.005 72.209 241.005 72.6747C241.005 73.1404 241.358 73.5179 241.794 73.5179Z" fill="black"/>
<path d="M245.35 77.7049V64.7109H239.257" stroke="black" stroke-width="1.5" stroke-linecap="round" stroke-linejoin="round"/>
<path d="M255.403 64.7108H249.31" stroke="black" stroke-width="1.5" stroke-linecap="round" stroke-linejoin="round"/>
<path d="M264.815 71.3683V75.8807C267.093 75.8807 268.94 73.9075 268.94 71.4734C268.94 71.3382 268.935 71.2044 268.923 71.0722C268.692 68.3354 264.815 68.6204 264.815 71.3683Z" fill="#EDEEEF"/>
<path d="M264.815 75.881C267.093 75.881 268.94 73.9077 268.94 71.4736" stroke="black" stroke-width="1.5" stroke-linecap="round" stroke-linejoin="round"/>
<path d="M248.682 79.2231C249.194 79.7705 249.889 80.0779 250.614 80.0779C251.338 80.0779 252.033 79.7705 252.545 79.2231" stroke="#FF6498" stroke-width="1.5" stroke-linecap="round" stroke-linejoin="round"/>
<path d="M245.351 77.7153L248.016 78.4151" stroke="black" stroke-width="1.5" stroke-linecap="round" stroke-linejoin="round"/>
<path d="M236.617 69.6435C236.617 69.6435 243.958 65.5598 245.201 58.6527C245.216 58.5468 245.298 58.4663 245.398 58.4582C245.498 58.45 245.59 58.5164 245.621 58.6185C246.522 61.6124 250.254 69.4859 264.815 71.3684" stroke="black" stroke-width="1.5" stroke-linecap="round" stroke-linejoin="round"/>
<path d="M237.242 73.6773C237.242 73.6773 229.94 70.2381 231.238 61.1224C232.537 52.0068 257.577 27.1685 274.456 50.9822C291.335 74.7959 319.25 119.78 319.25 119.78L300.83 122.805C292.301 124.205 283.625 121.557 277.076 115.554C270.528 109.551 266.759 100.791 266.759 91.5723V79.223" stroke="black" stroke-width="1.5" stroke-linecap="round" stroke-linejoin="round"/>
<path d="M475.99 195.809H330.701L340.666 102.69H485.955L475.99 195.809Z" fill="#EDEDED"/>
<path fill-rule="evenodd" clip-rule="evenodd" d="M470.221 187.866H324.932L334.897 94.7466H480.186L470.221 187.866Z" stroke="black" stroke-width="1.5" stroke-linecap="round" stroke-linejoin="round"/>
<path d="M407.516 223.17L411.294 187.866H388.058L384.28 223.17H407.516Z" fill="black"/>
<path d="M283.466 223.17H482.284" stroke="black" stroke-width="1.5" stroke-linecap="round" stroke-linejoin="round"/>
<path d="M222.641 112.584C222.641 112.584 185.003 145.607 175.543 198.98C166.084 252.353 241.091 239.528 276.817 223.817" stroke="black" stroke-width="1.5" stroke-linecap="round" stroke-linejoin="round"/>
<path d="M215.33 195.809C215.33 195.809 300.188 179.784 306.031 219.487" stroke="black" stroke-width="1.5" stroke-linecap="round" stroke-linejoin="round"/>
<path d="M279.565 112.584C279.565 112.584 306.196 141.943 313.219 195.809C313.219 195.809 340.232 196.802 341.312 219.487" stroke="black" stroke-width="1.5" stroke-linecap="round" stroke-linejoin="round"/>
<path d="M206.929 129.983C206.929 129.983 194.826 103.134 184.81 126.319C174.793 149.505 131.027 302.291 177.213 327.855C223.398 353.418 290.936 339.378 290.936 339.378" stroke="black" stroke-width="1.5" stroke-linecap="round" stroke-linejoin="round"/>
<path d="M239.896 343.225V515.289H184.81" stroke="black" stroke-width="1.5" stroke-linecap="round" stroke-linejoin="round"/>
<g filter="url(#filter0_d_106_1045)">
<rect x="34" y="382" width="78" height="78" rx="6" fill="white"/>
</g>
<g filter="url(#filter1_d_106_1045)">
<rect x="70.293" y="418.293" width="5.41406" height="5.41406" rx="2.70703" fill="#0087B9"/>
</g>
<path d="M94 420.926C94 421.074 93.9262 421.148 93.9262 421.221C93.9672 424.216 91.2437 426.176 88.2496 426.176H80.2188C78.0449 426.176 76.2812 428.014 76.2812 430.188C76.2812 430.466 76.3141 430.737 76.3633 431C76.5438 431.836 76.8965 432.575 77.2574 433.452C77.7496 434.584 78.25 435.708 78.25 436.898C78.25 439.514 76.4781 441.877 73.8695 441.984C73.5824 441.992 73.2871 442 73 442C61.4008 442 52 432.599 52 421C52 409.401 61.4008 400 73 400C84.5992 400 94 409.401 94 421V420.926ZM59.875 420.926C58.4255 420.926 57.25 422.173 57.25 423.551C57.25 425.077 58.4255 426.176 59.875 426.176C61.327 426.176 62.5 425.077 62.5 423.551C62.5 422.173 61.327 420.926 59.875 420.926ZM62.5 415.676C63.952 415.676 65.125 414.577 65.125 413.051C65.125 411.673 63.952 410.426 62.5 410.426C61.048 410.426 59.875 411.673 59.875 413.051C59.875 414.577 61.048 415.676 62.5 415.676ZM73 405.176C71.548 405.176 70.375 406.426 70.375 407.801C70.375 409.327 71.548 410.426 73 410.426C74.452 410.426 75.625 409.327 75.625 407.801C75.625 406.426 74.452 405.176 73 405.176ZM83.5 415.676C84.952 415.676 86.125 414.577 86.125 413.051C86.125 411.673 84.952 410.426 83.5 410.426C82.048 410.426 80.875 411.673 80.875 413.051C80.875 414.577 82.048 415.676 83.5 415.676Z" fill="#0087B9"/>
<g filter="url(#filter2_d_106_1045)">
<rect x="45" y="34" width="78" height="78" rx="6" fill="white"/>
</g>
<path d="M65 60.7823C65 58.1408 67.1264 56 69.75 56H98.25C100.87 56 103 58.1408 103 60.7823V84.6939C103 87.3316 100.87 89.4762 98.25 89.4762H69.75C67.1264 89.4762 65 87.3316 65 84.6939V60.7823ZM72.5926 64.9519C71.9283 65.6842 71.9773 66.8125 72.7039 67.485L78.3965 72.7381L72.7039 77.9912C71.9773 78.6637 71.9283 79.792 72.5926 80.5243C73.2605 81.1893 74.3812 81.3014 75.1086 80.6364L82.2336 74.0607C82.6047 73.717 82.8125 73.2387 82.8125 72.6708C82.8125 72.2374 82.6047 71.7592 82.2336 71.4155L75.1086 64.8398C74.3812 64.1748 73.2605 64.2196 72.5926 64.9519ZM83.4062 78.716C82.4191 78.716 81.625 79.5155 81.625 80.5094C81.625 81.5032 82.4191 82.3027 83.4062 82.3027H94.0938C95.0809 82.3027 95.875 81.5032 95.875 80.5094C95.875 79.5155 95.0809 78.716 94.0938 78.716H83.4062Z" fill="#FC6250"/>
<g filter="url(#filter3_d_106_1045)">
<rect x="498" y="239" width="78" height="78" rx="6" fill="white"/>
</g>
<g clip-path="url(#clip0_106_1045)">
<path d="M557.096 291.064C558.907 288.911 560 286.215 560 283.281C560 276.257 553.818 270.562 546.2 270.562C546.177 270.562 546.155 270.565 546.133 270.566C546.164 270.946 546.2 271.329 546.2 271.719C546.2 278.846 540.473 284.813 532.824 286.353C534.319 291.888 539.666 296 546.2 296C548.621 296 550.895 295.421 552.873 294.412C554.623 295.277 556.844 296 559.446 296C559.666 296 559.86 295.875 559.951 295.667C560.039 295.459 559.998 295.223 559.847 295.064C559.827 295.039 558.267 293.348 557.096 291.064ZM543.9 271.719C543.9 264.695 537.208 259 528.95 259C520.691 259 514 264.695 514 271.719C514 274.578 515.122 277.208 516.995 279.336C515.817 281.703 514.175 283.478 514.149 283.504C513.998 283.663 513.957 283.899 514.046 284.108C514.136 284.315 514.33 284.438 514.55 284.438C517.307 284.438 519.636 283.634 521.432 282.7C523.645 283.794 526.204 284.438 528.95 284.438C537.208 284.438 543.9 278.743 543.9 271.719ZM528.986 279.812C527.994 279.812 527.225 279.039 527.225 278.042C527.225 277.047 527.994 276.274 528.983 276.274C529.973 276.274 530.742 277.048 530.742 278.042C530.739 279.039 529.97 279.812 528.986 279.812ZM532.766 271.386L530.301 272.933V273.043C530.301 273.762 529.696 274.369 528.982 274.369C528.268 274.369 527.663 273.764 527.663 273.048V272.16C527.663 271.718 527.883 271.276 528.323 270.999L531.456 269.12C531.839 268.9 532.062 268.51 532.062 268.069C532.062 267.406 531.512 266.854 530.853 266.854H527.994C527.334 266.854 526.785 267.406 526.785 268.069C526.785 268.788 526.18 269.395 525.466 269.395C524.751 269.395 524.147 268.788 524.147 268.069C524.148 265.917 525.852 264.203 527.994 264.203H530.851C532.996 264.203 534.7 265.917 534.7 268.069C534.7 269.399 533.988 270.671 532.766 271.386Z" fill="#FFC024"/>
</g>
<circle cx="359.5" cy="211.5" r="10.5" fill="#0087B9"/>
<defs>
<filter id="filter0_d_106_1045" x="0" y="348" width="146" height="146" filterUnits="userSpaceOnUse" color-interpolation-filters="sRGB">
<feFlood flood-opacity="0" result="BackgroundImageFix"/>
<feColorMatrix in="SourceAlpha" type="matrix" values="0 0 0 0 0 0 0 0 0 0 0 0 0 0 0 0 0 0 127 0" result="hardAlpha"/>
<feOffset/>
<feGaussianBlur stdDeviation="17"/>
<feComposite in2="hardAlpha" operator="out"/>
<feColorMatrix type="matrix" values="0 0 0 0 0.119948 0 0 0 0 0.259808 0 0 0 0 0.6125 0 0 0 0.1 0"/>
<feBlend mode="normal" in2="BackgroundImageFix" result="effect1_dropShadow_106_1045"/>
<feBlend mode="normal" in="SourceGraphic" in2="effect1_dropShadow_106_1045" result="shape"/>
</filter>
<filter id="filter1_d_106_1045" x="36.293" y="384.293" width="73.4141" height="73.4141" filterUnits="userSpaceOnUse" color-interpolation-filters="sRGB">
<feFlood flood-opacity="0" result="BackgroundImageFix"/>
<feColorMatrix in="SourceAlpha" type="matrix" values="0 0 0 0 0 0 0 0 0 0 0 0 0 0 0 0 0 0 127 0" result="hardAlpha"/>
<feOffset/>
<feGaussianBlur stdDeviation="17"/>
<feComposite in2="hardAlpha" operator="out"/>
<feColorMatrix type="matrix" values="0 0 0 0 0.119948 0 0 0 0 0.259808 0 0 0 0 0.6125 0 0 0 0.1 0"/>
<feBlend mode="normal" in2="BackgroundImageFix" result="effect1_dropShadow_106_1045"/>
<feBlend mode="normal" in="SourceGraphic" in2="effect1_dropShadow_106_1045" result="shape"/>
</filter>
<filter id="filter2_d_106_1045" x="11" y="0" width="146" height="146" filterUnits="userSpaceOnUse" color-interpolation-filters="sRGB">
<feFlood flood-opacity="0" result="BackgroundImageFix"/>
<feColorMatrix in="SourceAlpha" type="matrix" values="0 0 0 0 0 0 0 0 0 0 0 0 0 0 0 0 0 0 127 0" result="hardAlpha"/>
<feOffset/>
<feGaussianBlur stdDeviation="17"/>
<feComposite in2="hardAlpha" operator="out"/>
<feColorMatrix type="matrix" values="0 0 0 0 0.119948 0 0 0 0 0.259808 0 0 0 0 0.6125 0 0 0 0.1 0"/>
<feBlend mode="normal" in2="BackgroundImageFix" result="effect1_dropShadow_106_1045"/>
<feBlend mode="normal" in="SourceGraphic" in2="effect1_dropShadow_106_1045" result="shape"/>
</filter>
<filter id="filter3_d_106_1045" x="464" y="205" width="146" height="146" filterUnits="userSpaceOnUse" color-interpolation-filters="sRGB">
<feFlood flood-opacity="0" result="BackgroundImageFix"/>
<feColorMatrix in="SourceAlpha" type="matrix" values="0 0 0 0 0 0 0 0 0 0 0 0 0 0 0 0 0 0 127 0" result="hardAlpha"/>
<feOffset/>
<feGaussianBlur stdDeviation="17"/>
<feComposite in2="hardAlpha" operator="out"/>
<feColorMatrix type="matrix" values="0 0 0 0 0.119948 0 0 0 0 0.259808 0 0 0 0 0.6125 0 0 0 0.1 0"/>
<feBlend mode="normal" in2="BackgroundImageFix" result="effect1_dropShadow_106_1045"/>
<feBlend mode="normal" in="SourceGraphic" in2="effect1_dropShadow_106_1045" result="shape"/>
</filter>
<clipPath id="clip0_106_1045">
<rect width="46" height="37" fill="white" transform="translate(514 259)"/>
</clipPath>
</defs>
</svg>
